<?xml version="1.0" standalone="no"?>
<!DOCTYPE svg PUBLIC "-//W3C//DTD SVG 20010904//EN"
 "http://www.w3.org/TR/2001/REC-SVG-20010904/DTD/svg10.dtd">
<svg version="1.0" xmlns="http://www.w3.org/2000/svg"
 width="500.000000pt" height="500.000000pt" viewBox="0 0 500.000000 500.000000"
 preserveAspectRatio="xMidYMid meet">

<g transform="translate(0.000000,500.000000) scale(0.100000,-0.100000)"
fill="#000000" stroke="none">
<path d="M2253 4216 c-191 -47 -348 -227 -373 -431 -15 -121 -37 -182 -92
-261 -52 -74 -57 -104 -19 -104 23 0 99 101 131 173 11 25 27 92 36 149 41
282 223 443 480 425 256 -18 454 -235 454 -499 0 -96 -21 -161 -86 -266 -51
-81 -199 -272 -212 -272 -4 0 -32 14 -62 31 -35 19 -63 28 -77 24 -12 -3 -54
-41 -94 -85 -40 -44 -81 -80 -90 -80 -10 0 -55 14 -101 31 -53 19 -88 27 -100
22 -26 -12 -158 -203 -158 -229 0 -27 13 -37 70 -53 69 -20 142 -65 197 -124
78 -83 114 -166 128 -297 8 -68 18 -90 42 -90 8 0 81 67 161 149 144 146 276
251 315 251 10 0 37 -10 59 -22 41 -23 73 -17 73 13 0 8 -65 47 -148 90 -82
41 -149 79 -149 83 1 4 143 153 318 332 268 274 320 323 338 318 11 -4 79 -33
149 -66 103 -47 131 -57 143 -47 25 21 15 38 -42 67 l-56 28 68 52 c37 29 68
51 70 50 1 -2 38 -64 83 -138 l81 -135 -153 -155 c-83 -85 -238 -243 -344
-350 -172 -175 -196 -204 -235 -281 -53 -104 -106 -174 -232 -305 -108 -115
-167 -163 -287 -234 -102 -61 -205 -105 -306 -131 -63 -16 -86 -17 -137 -9
-241 38 -536 211 -536 313 0 51 -25 125 -65 191 -19 32 -35 60 -35 61 0 1 30
-4 67 -12 59 -12 106 -33 164 -75 22 -15 49 -3 49 22 0 31 -92 87 -175 106
-39 9 -97 22 -130 30 -69 16 -103 48 -159 149 -48 86 -70 159 -70 240 -1 100
24 163 92 236 124 134 282 159 458 74 40 -19 79 -35 88 -35 8 0 34 27 56 60
49 72 172 221 224 270 l37 35 162 6 c221 8 323 36 395 110 41 42 55 87 50 163
-13 214 -228 353 -467 302 -162 -34 -249 -115 -258 -240 -9 -120 53 -183 202
-206 134 -21 277 15 309 79 43 82 -3 162 -108 186 -95 22 -220 -7 -214 -49 3
-23 4 -23 110 -10 103 12 168 -15 168 -70 0 -37 -41 -63 -120 -76 -97 -16
-227 8 -264 49 -28 31 -31 103 -7 154 40 84 138 128 281 130 68 0 95 -4 138
-23 131 -57 211 -231 152 -328 -43 -70 -191 -112 -396 -112 -126 0 -132 -1
-175 -28 -53 -34 -234 -242 -279 -321 -8 -14 -12 -14 -31 -3 -43 27 -145 60
-204 66 -126 14 -258 -36 -347 -132 -96 -105 -130 -211 -109 -348 19 -128 73
-235 171 -339 114 -121 164 -206 176 -296 9 -74 34 -119 95 -172 103 -90 344
-195 492 -215 117 -15 227 12 402 99 149 74 270 165 389 293 125 134 190 219
236 308 l35 67 67 15 c99 22 222 74 266 112 21 18 53 61 72 96 18 35 52 84 74
109 46 51 73 118 83 199 5 51 11 60 74 126 44 45 69 80 69 94 0 21 -154 294
-188 333 -8 9 -23 17 -32 17 -10 0 -58 -31 -108 -70 -50 -38 -94 -70 -99 -70
-4 0 -43 14 -87 32 l-79 33 -259 -265 c-406 -417 -454 -469 -442 -488 6 -9 48
-37 93 -61 l83 -43 -41 -27 c-67 -45 -209 -170 -277 -245 -42 -47 -64 -66 -67
-56 -2 8 -9 42 -16 75 -28 150 -131 279 -283 355 l-86 42 51 72 c28 39 52 73
53 75 2 2 44 -11 94 -28 50 -17 96 -31 103 -31 6 0 51 39 99 87 l87 86 61 -32
c40 -22 69 -31 83 -27 34 10 215 252 275 368 65 126 79 195 63 305 -35 234
-215 436 -429 482 -68 14 -183 13 -249 -3z m1363 -1240 c-14 -29 -36 -58 -49
-65 -12 -6 -37 -43 -56 -81 -18 -38 -50 -85 -71 -103 -34 -32 -191 -102 -210
-95 -5 2 85 99 198 217 212 220 244 241 188 127z"/>
<path d="M1730 1555 l0 -215 45 0 44 0 3 78 3 77 61 5 c69 6 98 24 120 77 18
43 18 77 -3 120 -27 58 -63 73 -175 73 l-98 0 0 -215z m180 125 c24 -24 26
-57 4 -88 -11 -16 -25 -22 -55 -22 l-39 0 0 65 0 65 35 0 c22 0 43 -8 55 -20z"/>
<path d="M2575 1622 c-11 -2 -28 -11 -37 -20 -16 -14 -18 -14 -18 1 0 14 -10
17 -50 17 l-50 0 0 -140 0 -140 50 0 50 0 0 83 c0 88 15 127 49 127 33 0 41
-21 41 -117 l0 -93 50 0 50 0 0 89 c0 95 11 121 50 121 30 0 40 -32 40 -124
l0 -86 45 0 45 0 0 100 c0 109 -13 150 -52 171 -33 18 -98 13 -128 -10 -24
-17 -29 -18 -42 -5 -18 18 -67 32 -93 26z"/>
<path d="M3117 1620 c-16 -5 -35 -14 -43 -21 -11 -9 -14 -8 -14 5 0 13 -11 16
-50 16 l-50 0 0 -221 0 -220 48 3 47 3 3 92 3 93 25 -16 c32 -21 91 -21 132 0
37 19 72 81 72 126 0 90 -91 163 -173 140z m50 -92 c29 -27 29 -65 1 -95 -26
-28 -61 -30 -88 -3 -40 40 -12 120 42 120 12 0 32 -10 45 -22z"/>
<path d="M2060 1520 c0 -102 10 -141 44 -169 21 -18 92 -16 121 3 22 14 25 15
25 1 0 -11 12 -15 50 -15 l50 0 0 140 0 140 -50 0 -50 0 0 -83 c0 -93 -15
-127 -56 -127 -33 0 -44 32 -44 131 l0 79 -45 0 -45 0 0 -100z"/>
<path d="M1300 1045 l0 -105 60 0 c71 0 81 18 13 22 -48 3 -48 3 -48 38 0 34
1 35 43 38 56 4 54 22 -4 22 -45 0 -45 0 -42 33 3 31 5 32 51 35 68 4 58 22
-13 22 l-60 0 0 -105z"/>
<path d="M1460 1045 c0 -90 2 -105 16 -105 14 0 16 11 12 85 -2 47 -3 85 -1
85 2 0 28 -38 58 -85 75 -115 85 -113 85 20 0 128 -18 142 -22 18 l-3 -88 -57
88 c-78 118 -88 116 -88 -18z"/>
<path d="M1725 1138 c-44 -26 -60 -74 -44 -132 12 -45 42 -66 95 -66 67 0 74
6 74 61 l0 49 -35 0 c-19 0 -35 -4 -35 -10 0 -5 9 -10 20 -10 16 0 20 -7 20
-35 0 -34 -1 -35 -40 -35 -74 0 -108 82 -58 145 19 25 26 27 70 23 33 -4 48
-2 45 6 -5 15 -88 18 -112 4z"/>
<path d="M1900 1045 l0 -105 55 0 c30 0 55 5 55 10 0 6 -20 10 -45 10 l-45 0
0 95 c0 57 -4 95 -10 95 -6 0 -10 -42 -10 -105z"/>
<path d="M2050 1045 c0 -63 4 -105 10 -105 6 0 10 42 10 105 0 63 -4 105 -10
105 -6 0 -10 -42 -10 -105z"/>
<path d="M2136 1131 c-29 -32 -14 -69 38 -92 49 -21 61 -39 42 -64 -9 -13 -23
-16 -54 -13 -30 2 -42 0 -42 -9 0 -22 87 -16 110 7 37 37 21 73 -47 99 -63 25
-48 77 20 68 26 -4 37 -2 34 6 -2 7 -21 13 -43 15 -30 2 -45 -2 -58 -17z"/>
<path d="M2290 1045 c0 -87 3 -105 15 -105 11 0 15 12 15 50 l0 50 55 0 55 0
0 -50 c0 -27 5 -50 10 -50 6 0 10 42 10 105 0 63 -4 105 -10 105 -5 0 -10 -20
-10 -45 l0 -45 -55 0 -55 0 0 45 c0 33 -4 45 -15 45 -12 0 -15 -18 -15 -105z"/>
<path d="M2598 1139 c-22 -12 -24 -62 -3 -79 8 -7 30 -20 48 -29 42 -21 49
-58 12 -67 -14 -3 -39 -4 -56 0 -22 4 -29 2 -27 -7 3 -6 25 -13 50 -15 54 -4
78 15 78 59 0 25 -7 32 -47 52 -38 18 -48 27 -48 47 0 22 4 25 40 26 22 0 42
5 45 10 7 13 -72 16 -92 3z"/>
<path d="M2770 1121 c-26 -25 -30 -37 -30 -81 0 -69 29 -100 95 -100 25 0 45
5 45 10 0 6 -18 10 -39 10 -31 0 -44 6 -60 26 -27 34 -27 84 1 119 19 24 26
27 65 22 30 -3 43 -1 40 7 -2 6 -22 12 -45 14 -36 3 -47 -1 -72 -27z"/>
<path d="M2930 1045 c0 -105 16 -148 22 -57 l3 47 58 3 57 3 0 -51 c0 -27 5
-50 10 -50 6 0 10 42 10 105 0 63 -4 105 -10 105 -5 0 -10 -20 -10 -45 l0 -45
-60 0 -60 0 0 45 c0 25 -4 45 -10 45 -6 0 -10 -42 -10 -105z"/>
<path d="M3179 1137 c-25 -19 -39 -52 -39 -92 0 -67 33 -104 92 -105 25 0 46
8 65 24 25 21 28 31 28 81 0 50 -3 60 -28 81 -31 26 -90 32 -118 11z m105 -26
c12 -13 18 -36 18 -66 0 -57 -22 -85 -67 -85 -44 0 -70 31 -70 85 0 28 7 50
19 64 24 27 77 28 100 2z"/>
<path d="M3395 1125 c-21 -20 -25 -34 -25 -80 0 -71 28 -105 87 -105 49 0 78
21 93 66 15 46 0 106 -33 129 -34 24 -94 19 -122 -10z m115 -15 c14 -14 20
-33 20 -63 0 -57 -22 -87 -63 -87 -38 0 -50 7 -66 37 -20 40 -9 104 23 125 21
14 66 8 86 -12z"/>
<path d="M3600 1045 l0 -105 60 0 c33 0 60 4 60 10 0 6 -20 10 -45 10 l-45 0
0 95 c0 78 -3 95 -15 95 -12 0 -15 -18 -15 -105z"/>
</g>
</svg>
